<svg width="32" height="32" viewBox="0 0 32 32" fill="none" xmlns="http://www.w3.org/2000/svg">
<path d="M0.732233 26.8052C-0.244078 27.7815 -0.244078 29.3645 0.732233 30.3408C1.70854 31.3171 3.29146 31.3171 4.26777 30.3408L2.5 28.573L0.732233 26.8052ZM31.073 2.50003C31.073 1.11932 29.9537 3.68862e-05 28.573 3.41888e-05L6.07296 3.55375e-05C4.69225 3.55375e-05 3.57296 1.11932 3.57296 2.50004C3.57296 3.88075 4.69225 5.00004 6.07296 5.00004H26.073V25C26.073 26.3807 27.1923 27.5 28.573 27.5C29.9537 27.5 31.073 26.3807 31.073 25L31.073 2.50003ZM2.5 28.573L4.26777 30.3408L30.3407 4.2678L28.573 2.50004L26.8052 0.732269L0.732233 26.8052L2.5 28.573Z" fill="white"/>
</svg>
