<svg width="31" height="31" viewBox="0 0 31 31" fill="none" xmlns="http://www.w3.org/2000/svg">
<g clip-path="url(#clip0_245_6253)">
<path d="M26.8558 16.8602C26.5174 16.8602 26.1636 16.7525 25.8251 16.6756C25.1398 16.5246 24.4663 16.3241 23.81 16.0757C23.0963 15.816 22.3119 15.8295 21.6076 16.1135C20.9033 16.3975 20.3289 16.9319 19.995 17.614L19.6566 18.3062C18.1583 17.4727 16.7815 16.4375 15.5647 15.2296C14.3568 14.0128 13.3216 12.636 12.4881 11.1377L13.1342 10.707C13.8162 10.3731 14.3507 9.7987 14.6347 9.09441C14.9186 8.39012 14.9321 7.60568 14.6725 6.89205C14.4283 6.23431 14.2278 5.56111 14.0726 4.87688C13.9957 4.53846 13.9341 4.18465 13.888 3.83084C13.7012 2.7473 13.1336 1.76605 12.2876 1.06382C11.4415 0.361582 10.3725 -0.0154965 9.2731 0.000488105H4.65821C3.99526 -0.00573666 3.33874 0.130956 2.73336 0.401261C2.12798 0.671565 1.58795 1.06914 1.15003 1.56691C0.712104 2.06468 0.386576 2.65096 0.195602 3.28585C0.00462826 3.92073 -0.0473079 4.58931 0.0433294 5.24607C0.862838 11.6906 3.80604 17.6784 8.40804 22.2637C13.01 26.8489 19.0085 29.7703 25.456 30.5664H26.0405C27.1749 30.5681 28.2701 30.1519 29.1171 29.3973C29.6038 28.962 29.9925 28.4284 30.2577 27.8318C30.5229 27.2352 30.6584 26.589 30.6554 25.9361V21.3213C30.6365 20.2527 30.2474 19.2239 29.5545 18.4103C28.8615 17.5967 27.9077 17.0488 26.8558 16.8602ZM27.625 26.09C27.6247 26.3084 27.5779 26.5242 27.4877 26.7232C27.3975 26.9221 27.266 27.0995 27.1019 27.2437C26.9306 27.3929 26.7296 27.5043 26.5123 27.5706C26.2949 27.6368 26.066 27.6565 25.8405 27.6283C20.0795 26.8896 14.7283 24.254 10.631 20.1372C6.5337 16.0204 3.92354 10.6568 3.21222 4.89226C3.18773 4.66693 3.20919 4.43898 3.27529 4.22217C3.34139 4.00536 3.45076 3.80421 3.59679 3.63086C3.74094 3.46678 3.91839 3.33527 4.11732 3.24509C4.31624 3.1549 4.5321 3.10812 4.75051 3.10784H9.36539C9.72312 3.09988 10.0724 3.21688 10.3532 3.43869C10.634 3.66049 10.8286 3.97324 10.9037 4.3231C10.9652 4.74356 11.0421 5.1589 11.1344 5.56911C11.3121 6.38002 11.5486 7.17691 11.842 7.95347L9.68843 8.95336C9.5043 9.03785 9.33866 9.15787 9.20104 9.30655C9.06342 9.45522 8.95652 9.62962 8.88648 9.81972C8.81644 10.0098 8.78464 10.2119 8.79291 10.4143C8.80118 10.6167 8.84936 10.8155 8.93467 10.9993C11.1486 15.7415 14.9605 19.5534 19.7027 21.7674C20.0772 21.9212 20.4973 21.9212 20.8718 21.7674C21.0637 21.6987 21.24 21.5927 21.3905 21.4554C21.541 21.3181 21.6628 21.1522 21.7487 20.9674L22.7024 18.8138C23.4977 19.0982 24.3093 19.3345 25.1329 19.5214C25.5431 19.6137 25.9585 19.6907 26.3789 19.7522C26.7288 19.8272 27.0415 20.0219 27.2633 20.3027C27.4851 20.5834 27.6021 20.9328 27.5942 21.2905L27.625 26.09Z" fill="white"/>
</g>
<defs>
<clipPath id="clip0_245_6253">
<rect width="30.5664" height="30.5664" fill="white"/>
</clipPath>
</defs>
</svg>
