<svg width="34" height="34" viewBox="0 0 34 34" fill="none" xmlns="http://www.w3.org/2000/svg">
<path d="M26.0442 5.87438C25.6413 5.87438 25.2474 5.99387 24.9123 6.21774C24.5773 6.44161 24.3162 6.7598 24.162 7.13208C24.0078 7.50436 23.9674 7.914 24.046 8.30921C24.1246 8.70442 24.3187 9.06744 24.6036 9.35237C24.8885 9.6373 25.2516 9.83134 25.6468 9.90995C26.042 9.98856 26.4516 9.94822 26.8239 9.79401C27.1962 9.63981 27.5144 9.37868 27.7382 9.04364C27.9621 8.7086 28.0816 8.31469 28.0816 7.91174C28.0816 7.3714 27.8669 6.85319 27.4849 6.47111C27.1028 6.08903 26.5846 5.87438 26.0442 5.87438ZM33.8541 9.98306C33.8211 8.57439 33.5573 7.18067 33.0731 5.8574C32.6414 4.7252 31.9695 3.69998 31.1037 2.8523C30.263 1.98205 29.2353 1.3144 28.0986 0.899833C26.7788 0.400953 25.3835 0.131087 23.9729 0.101868C22.1733 -9.48719e-08 21.596 0 16.978 0C12.36 0 11.7827 -9.48719e-08 9.98306 0.101868C8.57244 0.131087 7.17718 0.400953 5.8574 0.899833C4.72273 1.31859 3.696 1.98568 2.8523 2.8523C1.98205 3.69301 1.3144 4.72063 0.899833 5.8574C0.400953 7.17718 0.131087 8.57244 0.101868 9.98306C-9.48719e-08 11.7827 0 12.36 0 16.978C0 21.596 -9.48719e-08 22.1733 0.101868 23.9729C0.131087 25.3835 0.400953 26.7788 0.899833 28.0986C1.3144 29.2353 1.98205 30.263 2.8523 31.1037C3.696 31.9703 4.72273 32.6374 5.8574 33.0561C7.17718 33.555 8.57244 33.8249 9.98306 33.8541C11.7827 33.956 12.36 33.956 16.978 33.956C21.596 33.956 22.1733 33.956 23.9729 33.8541C25.3835 33.8249 26.7788 33.555 28.0986 33.0561C29.2353 32.6416 30.263 31.9739 31.1037 31.1037C31.9734 30.2591 32.6458 29.233 33.0731 28.0986C33.5573 26.7753 33.8211 25.3816 33.8541 23.9729C33.8541 22.1733 33.956 21.596 33.956 16.978C33.956 12.36 33.956 11.7827 33.8541 9.98306ZM30.7981 23.7692C30.7857 24.8469 30.5905 25.9147 30.2208 26.9271C29.9497 27.666 29.5143 28.3336 28.9475 28.8796C28.3968 29.4407 27.7305 29.8752 26.995 30.1529C25.9826 30.5226 24.9148 30.7178 23.8371 30.7302C22.1393 30.815 21.5111 30.832 17.0459 30.832C12.5807 30.832 11.9525 30.832 10.2547 30.7302C9.13567 30.7511 8.02141 30.5788 6.96097 30.2208C6.25771 29.9289 5.62201 29.4955 5.0934 28.9475C4.52988 28.402 4.09992 27.7339 3.83702 26.995C3.42252 25.9681 3.19261 24.876 3.15791 23.7692C3.15791 22.0714 3.05604 21.4432 3.05604 16.978C3.05604 12.5128 3.05604 11.8846 3.15791 10.1868C3.16552 9.08501 3.36665 7.99314 3.75213 6.96097C4.05103 6.24435 4.5098 5.60555 5.0934 5.0934C5.60921 4.50964 6.24669 4.04602 6.96097 3.73516C7.99587 3.36171 9.08661 3.16653 10.1868 3.15791C11.8846 3.15791 12.5128 3.05604 16.978 3.05604C21.4432 3.05604 22.0714 3.05604 23.7692 3.15791C24.8469 3.17027 25.9147 3.36545 26.9271 3.73516C27.6986 4.02149 28.3911 4.48702 28.9475 5.0934C29.5038 5.61492 29.9386 6.25254 30.2208 6.96097C30.5982 7.99482 30.7935 9.08624 30.7981 10.1868C30.883 11.8846 30.8999 12.5128 30.8999 16.978C30.8999 21.4432 30.883 22.0714 30.7981 23.7692ZM16.978 8.26828C15.2561 8.27164 13.5738 8.7853 12.1438 9.74438C10.7137 10.7034 9.6 12.0649 8.94338 13.6567C8.28677 15.2485 8.11671 16.9992 8.45469 18.6875C8.79267 20.3759 9.62352 21.9263 10.8423 23.1427C12.061 24.359 13.613 25.1869 15.302 25.5216C16.9911 25.8563 18.7414 25.6828 20.3319 25.0231C21.9224 24.3634 23.2817 23.247 24.238 21.8151C25.1943 20.3831 25.7047 18.6999 25.7047 16.978C25.7069 15.8321 25.4826 14.6972 25.0446 13.6383C24.6067 12.5795 23.9637 11.6177 23.1527 10.8083C22.3416 9.99883 21.3786 9.35772 20.3189 8.92181C19.2592 8.4859 18.1238 8.2638 16.978 8.26828ZM16.978 22.6317C15.8598 22.6317 14.7667 22.3001 13.837 21.6788C12.9072 21.0576 12.1826 20.1746 11.7547 19.1416C11.3268 18.1085 11.2148 16.9717 11.4329 15.875C11.6511 14.7783 12.1896 13.7709 12.9802 12.9802C13.7709 12.1896 14.7783 11.6511 15.875 11.4329C16.9717 11.2148 18.1085 11.3268 19.1416 11.7547C20.1746 12.1826 21.0576 12.9072 21.6788 13.837C22.3001 14.7667 22.6317 15.8598 22.6317 16.978C22.6317 17.7204 22.4854 18.4556 22.2013 19.1416C21.9172 19.8275 21.5007 20.4507 20.9757 20.9757C20.4507 21.5007 19.8275 21.9172 19.1416 22.2013C18.4556 22.4854 17.7204 22.6317 16.978 22.6317Z" fill="white"/>
</svg>
