<svg width="84" height="34" viewBox="0 0 84 34" fill="none" xmlns="http://www.w3.org/2000/svg">
<path d="M31.5939 11.2584C29.847 9.51146 27.4389 8.68506 25.0104 8.94806C25.2794 6.51952 24.4458 4.11029 22.7001 2.36459C21.1764 0.840879 19.1411 0 16.9816 0C14.8221 0 12.7869 0.840879 11.2644 2.36339C9.51749 4.11029 8.68506 6.51832 8.95409 8.94685C6.52556 8.68385 4.11632 9.51146 2.37063 11.2572C0.839672 12.7869 0 14.8161 0 16.9756C0 19.1351 0.839672 21.1692 2.36942 22.6929C3.89193 24.2226 5.92114 25.055 8.08667 25.055C8.36777 25.055 8.65128 25.0418 8.94565 25.0092C8.91307 25.2975 8.89256 25.5871 8.89256 25.8754C8.89256 28.0349 9.73344 30.0641 11.2632 31.5927C12.7857 33.1152 14.8209 33.9561 16.9804 33.9561C19.1399 33.9561 21.1752 33.1152 22.6977 31.5927C24.2274 30.0629 25.0683 28.0349 25.0683 25.8754C25.0683 25.5871 25.0478 25.2975 25.0152 25.0092C25.3108 25.043 25.5931 25.055 25.8742 25.055C28.0397 25.055 30.0689 24.2214 31.5915 22.6929C33.1212 21.1692 33.9609 19.1412 33.9609 16.9756C33.9609 14.8101 33.1212 12.7869 31.5915 11.2584H31.5939ZM13.9825 5.13455C14.7872 4.3371 15.8524 3.89072 16.9841 3.89072C18.1157 3.89072 19.181 4.3371 19.9808 5.13455C21.6336 6.78735 21.6336 9.48009 19.9808 11.1329L16.9841 14.1345L13.9825 11.1329C12.3297 9.48009 12.3297 6.78735 13.9825 5.13455ZM11.1353 19.9772C9.48251 21.63 6.78976 21.63 5.13696 19.9772C4.33951 19.1725 3.89314 18.1072 3.89314 16.9756C3.89314 15.844 4.33951 14.7787 5.13696 13.9789C6.78976 12.3261 9.48251 12.3261 11.1353 13.9789L14.1369 16.9756L11.1353 19.9772ZM19.9808 28.8227C19.1822 29.6202 18.1181 30.0665 16.9841 30.0665C15.85 30.0665 14.7872 29.6202 13.9825 28.8227C12.3297 27.1699 12.3297 24.4772 13.9825 22.8244L16.9841 19.8228L19.9808 22.8244C21.6336 24.4772 21.6336 27.1699 19.9808 28.8227ZM28.8251 19.9772C27.1723 21.63 24.4796 21.63 22.8268 19.9772L19.8252 16.9756L22.8268 13.9789C24.4796 12.3261 27.1723 12.3261 28.8251 13.9789C29.6226 14.7775 30.069 15.8416 30.069 16.9756C30.069 18.1097 29.6226 19.1725 28.8251 19.9772Z" fill="white"/>
<path d="M41.7507 30.0664H45.6451V3.89062L41.7507 4.91609V30.0664Z" fill="white"/>
<path d="M53.4303 11.0518V30.0662H49.542V12.0772L53.4303 11.0518Z" fill="white"/>
<path d="M70.4348 24.6579C70.4348 25.1344 70.3853 25.5844 70.2864 26.0079C70.0162 27.1866 69.3647 28.1553 68.3416 28.9142C66.9542 29.9457 65.1977 30.456 63.0961 30.456C61.2382 30.456 59.6457 30.0675 58.3199 29.2918C57.6684 28.9166 57.1086 28.4666 56.6345 27.9442C56.3896 27.6752 56.1688 27.3893 55.9709 27.0828L58.9508 24.103C59.6035 25.8583 60.9933 26.7318 63.0949 26.7318C65.1965 26.7318 66.2895 26.0284 66.2895 24.629C66.2895 24.0269 65.9433 23.5371 65.2592 23.1595C64.5643 22.7807 63.7283 22.4646 62.7378 22.2004C62.2516 22.0701 61.7642 21.9302 61.2744 21.7794C60.7665 21.6237 60.2586 21.4585 59.7495 21.2811C58.7373 20.924 57.9012 20.3437 57.2063 19.5258C56.5138 18.709 56.176 17.6787 56.176 16.4241C56.176 14.6989 56.8287 13.3006 58.1461 12.2486C59.4635 11.1978 61.0958 10.667 63.0563 10.667C64.6065 10.667 65.9951 11.0132 67.21 11.7081C68.1003 12.2052 68.8351 12.8494 69.4178 13.6384L66.5827 16.4735C65.9264 15.0548 64.7465 14.3514 63.0563 14.3514C62.2806 14.3514 61.6267 14.5251 61.0958 14.8629C60.5759 15.2007 60.3105 15.699 60.3105 16.3517C60.3105 17.0043 60.6567 17.4749 61.3407 17.832C62.0356 18.1999 62.8717 18.516 63.8622 18.7826C63.9708 18.8104 64.0793 18.8393 64.1891 18.8683C65.0722 19.1035 65.9626 19.3834 66.8541 19.7007C67.8639 20.047 68.712 20.649 69.3948 21.4874C70.0897 22.3235 70.436 23.3851 70.436 24.6615V24.6579H70.4348Z" fill="white"/>
<path d="M78.654 24.6776C78.654 25.4232 78.8277 25.954 79.1643 26.2798C79.5009 26.5958 80.0015 26.7804 80.6542 26.8202C81.3178 26.8504 82.1442 26.8504 83.1238 26.7997V30.3008C80.1536 30.6579 78.0097 30.4033 76.714 29.525C75.4183 28.6468 74.7644 27.0241 74.7644 24.6764V14.8067H71.4468V11.051H74.7644V4.91517L78.6528 3.89453V11.051H83.1238V14.8067H78.6528V24.6764H78.654V24.6776Z" fill="white"/>
<path d="M51.4867 3.89062C50.1488 3.89062 49.0642 4.9752 49.0642 6.31313C49.0642 7.65105 50.1488 8.73563 51.4867 8.73563C52.8246 8.73563 53.9092 7.65105 53.9092 6.31313C53.9092 4.9752 52.8246 3.89062 51.4867 3.89062Z" fill="white"/>
</svg>
