<svg width="20" height="23" viewBox="0 0 20 23" fill="none" xmlns="http://www.w3.org/2000/svg">
<path d="M9.58333 0C7.04168 0 4.60412 0.96928 2.80689 2.69461C1.00967 4.41994 0 6.75999 0 9.19997C0 15.41 8.44531 22.4249 8.80469 22.7239C9.02167 22.9021 9.29781 23 9.58333 23C9.86886 23 10.145 22.9021 10.362 22.7239C10.7812 22.4249 19.1667 15.41 19.1667 9.19997C19.1667 6.75999 18.157 4.41994 16.3598 2.69461C14.5625 0.96928 12.125 0 9.58333 0ZM9.58333 20.2974C7.03177 17.9974 2.39583 13.041 2.39583 9.19997C2.39583 7.36998 3.15309 5.61495 4.501 4.32095C5.84892 3.02695 7.67709 2.29999 9.58333 2.29999C11.4896 2.29999 13.3177 3.02695 14.6657 4.32095C16.0136 5.61495 16.7708 7.36998 16.7708 9.19997C16.7708 13.041 12.1349 18.0089 9.58333 20.2974ZM9.58333 4.59999C8.63563 4.59999 7.70921 4.86977 6.92123 5.37522C6.13324 5.88067 5.51908 6.59909 5.15641 7.43963C4.79374 8.28017 4.69885 9.20507 4.88374 10.0974C5.06862 10.9897 5.52499 11.8093 6.19511 12.4527C6.86524 13.096 7.71903 13.5341 8.64853 13.7116C9.57802 13.8891 10.5415 13.798 11.417 13.4498C12.2926 13.1016 13.0409 12.512 13.5675 11.7556C14.094 10.9991 14.375 10.1098 14.375 9.19997C14.375 7.97998 13.8702 6.80995 12.9716 5.94729C12.0729 5.08462 10.8542 4.59999 9.58333 4.59999ZM9.58333 11.5C9.10948 11.5 8.64627 11.3651 8.25228 11.1123C7.85829 10.8596 7.55121 10.5004 7.36987 10.0801C7.18854 9.65987 7.14109 9.19742 7.23353 8.75126C7.32598 8.30511 7.55416 7.89529 7.88922 7.57363C8.22429 7.25197 8.65118 7.03292 9.11593 6.94417C9.58068 6.85543 10.0624 6.90097 10.5002 7.07505C10.938 7.24914 11.3121 7.54393 11.5754 7.92216C11.8387 8.3004 11.9792 8.74507 11.9792 9.19997C11.9792 9.80997 11.7267 10.395 11.2774 10.8263C10.8281 11.2576 10.2187 11.5 9.58333 11.5Z" fill="white"/>
</svg>
