<svg width="21" height="14" viewBox="0 0 21 14" fill="none" xmlns="http://www.w3.org/2000/svg">
<path d="M17.9669 0H3.03315C1.35912 0 0 1.15338 0 2.57401V11.426C0 12.8466 1.35912 14 3.03315 14H17.9669C19.6409 14 21 12.8466 21 11.426V2.57401C21 1.15338 19.6409 0 17.9669 0ZM17.9669 1.2284C18.0884 1.2284 18.2099 1.24246 18.326 1.26591L12.0276 7.33289C11.6409 7.70328 11.0829 7.91895 10.5028 7.91895C9.92265 7.91895 9.36464 7.70797 8.9779 7.33289L2.67403 1.26591C2.79006 1.24246 2.9116 1.2284 3.03315 1.2284H17.9669ZM19.547 11.426C19.547 12.1668 18.8398 12.7669 17.9669 12.7669H3.03315C2.16022 12.7669 1.45304 12.1668 1.45304 11.426V2.57401C1.45304 2.39585 1.49724 2.22237 1.56906 2.06296L7.88398 8.14401C8.54696 8.78165 9.49724 9.14735 10.4972 9.14735C11.4972 9.14735 12.4475 8.78165 13.1105 8.14401L19.4254 2.06296C19.5028 2.21768 19.5414 2.39116 19.5414 2.57401V11.426H19.547Z" fill="white"/>
</svg>
