<svg width="22" height="20" viewBox="0 0 34 27" fill="none" xmlns="http://www.w3.org/2000/svg">
<path d="M28.3333 0H5C3.67392 0 2.40215 0.526784 1.46447 1.46447C0.526784 2.40215 0 3.67392 0 5V21.6667C0 22.9927 0.526784 24.2645 1.46447 25.2022C2.40215 26.1399 3.67392 26.6667 5 26.6667H28.3333C29.6594 26.6667 30.9312 26.1399 31.8689 25.2022C32.8066 24.2645 33.3333 22.9927 33.3333 21.6667V5C33.3333 3.67392 32.8066 2.40215 31.8689 1.46447C30.9312 0.526784 29.6594 0 28.3333 0ZM27.65 3.33333L17.85 13.1333C17.6951 13.2895 17.5107 13.4135 17.3076 13.4982C17.1045 13.5828 16.8867 13.6263 16.6667 13.6263C16.4466 13.6263 16.2288 13.5828 16.0257 13.4982C15.8226 13.4135 15.6383 13.2895 15.4833 13.1333L5.68333 3.33333H27.65ZM30 21.6667C30 22.1087 29.8244 22.5326 29.5118 22.8452C29.1993 23.1577 28.7754 23.3333 28.3333 23.3333H5C4.55797 23.3333 4.13405 23.1577 3.82149 22.8452C3.50893 22.5326 3.33333 22.1087 3.33333 21.6667V5.68333L13.1333 15.4833C14.0708 16.4197 15.3417 16.9456 16.6667 16.9456C17.9917 16.9456 19.2625 16.4197 20.2 15.4833L30 5.68333V21.6667Z" fill="white"/>
</svg>
