<svg width="21" height="21" viewBox="0 0 21 21" fill="none" xmlns="http://www.w3.org/2000/svg">
<path d="M16.7545 21C7.51752 21 0.0025286 13.4825 0 4.24552C0.0025286 1.90404 1.9091 0 4.24552 0C4.48574 0 4.72341 0.0202263 4.95098 0.0606839C5.45164 0.144128 5.92704 0.313546 6.36449 0.568934C6.4277 0.606863 6.47068 0.667561 6.48079 0.738362L7.45683 6.89043C7.46947 6.96123 7.44672 7.03457 7.39867 7.08767C6.86008 7.68442 6.1723 8.11427 5.40614 8.3292L5.03697 8.43288L5.17603 8.78941C6.43527 11.9957 8.99928 14.5571 12.2081 15.8214L12.5646 15.963L12.6683 15.5939C12.8832 14.8277 13.3131 14.1399 13.9098 13.6013C13.9528 13.5609 14.011 13.5406 14.0691 13.5406C14.0818 13.5406 14.0944 13.5406 14.1096 13.5432L20.2616 14.5192C20.335 14.5319 20.3957 14.5723 20.4336 14.6355C20.6865 15.073 20.8559 15.5509 20.9418 16.0515C20.9823 16.2741 21 16.5092 21 16.7545C21 19.0934 19.096 20.9975 16.7545 21Z" fill="white"/>
</svg>
