<svg width="30" height="34" viewBox="0 0 30 34" fill="none" xmlns="http://www.w3.org/2000/svg">
<path d="M5.62805 19.5579C7.48075 17.6952 10.5681 18.0057 12.1119 18.6266V12.1073C6.18361 11.3622 2.23156 16.143 0.996579 18.6266C0.0702915 20.4892 -1.04125 25.3321 1.92287 29.8025C4.88698 34.2729 9.90383 34.4068 13.9646 33.5278C19.8077 31.0225 20.4486 27.0085 20.4486 22.3519V10.2446C21.9307 12.4798 27.5501 13.9699 29.7115 13.9699V8.38195C24.5243 8.38195 21.9924 2.79398 21.3749 0H15.8172V20.4892C15.8172 22.3519 15.4292 26.4673 13.9646 27.9398C12.5 29.4124 9.33332 29.8025 6.55434 27.9398C4.37439 26.4787 3.55675 21.6403 5.62805 19.5579Z" fill="white"/>
</svg>
