<svg width="36" height="25" viewBox="0 0 36 25" fill="none" xmlns="http://www.w3.org/2000/svg">
<path d="M35.3811 8.50384C35.4606 6.27114 34.9574 4.05516 33.9182 2.06164C33.2131 1.24364 32.2346 0.69163 31.1532 0.501779C26.6801 0.107955 22.1885 -0.0534603 17.6977 0.0182242C13.2232 -0.0567138 8.74774 0.099493 4.29036 0.486181C3.40911 0.641725 2.59358 1.0428 1.94328 1.64047C0.496449 2.93515 0.33569 5.15015 0.174931 7.02198C-0.0583104 10.3875 -0.0583104 13.7644 0.174931 17.1298C0.221439 18.1834 0.383104 19.2291 0.657208 20.2495C0.851043 21.0374 1.24321 21.7663 1.7986 22.371C2.45332 23.0003 3.28784 23.4242 4.1939 23.5876C7.65973 24.0027 11.1519 24.1748 14.6432 24.1024C20.2698 24.1804 25.2051 24.1024 31.0406 23.6656C31.969 23.5122 32.827 23.0878 33.5003 22.4489C33.9503 22.0121 34.2865 21.4773 34.4809 20.8891C35.0558 19.1773 35.3382 17.3858 35.3168 15.5856C35.3811 14.7121 35.3811 9.43975 35.3811 8.50384ZM14.0645 16.5215V6.86599L23.5814 11.7171C20.9128 13.1522 17.3922 14.7745 14.0645 16.5215Z" fill="white"/>
</svg>
