<?xml version="1.0" encoding="UTF-8"?>
<svg id="Layer_1" xmlns="http://www.w3.org/2000/svg" version="1.1" viewBox="0 0 656.5 608">
  <!-- Generator: Adobe Illustrator 29.3.1, SVG Export Plug-In . SVG Version: 2.1.0 Build 151)  -->
  <defs>
    <style>
      .st0 {
        fill: #0c6db6;
      }

      .st1 {
        fill: #0c2545;
      }
    </style>
  </defs>
  <g>
    <polygon class="st0" points="625 304 583.1 345.9 328.3 91.1 328.3 7.3 465.7 144.7 465.7 108.2 525.5 108.2 525.5 204.5 625 304"/>
    <polygon class="st0" points="454.3 474.5 412.1 516.9 328.3 600.7 328.3 516.9 370.1 475 328.3 433.1 328.3 348.6 370.6 390.8 412.5 432.8 454.3 474.5"/>
    <polygon class="st0" points="541.1 387.7 496.2 432.8 454.3 390.8 328.3 264.7 328.3 174.9 328.3 174.9 541.1 387.7"/>
  </g>
  <polygon class="st1" points="328.3 7.3 328.3 91.1 241.5 177.9 157.3 262.1 115.4 304 73.4 345.9 31.5 304 328.3 7.3"/>
  <polygon class="st1" points="327.9 264.4 285.9 306.3 328.3 348.6 328.3 433.1 243.7 348.6 199.1 304 283.3 219.8 328.3 174.9 328.3 264.7 327.9 264.4"/>
  <polygon class="st1" points="328.3 516.9 328.3 600.7 115.4 387.7 157.3 345.9 201.7 390.5 328.3 516.9"/>
</svg>