<?xml version="1.0" encoding="UTF-8"?>
<svg id="Layer_1" data-name="Layer 1" xmlns="http://www.w3.org/2000/svg" viewBox="0 0 1008.54 608">
  <defs>
    <style>
      .cls-1 {
        fill: #fff;
      }

      .cls-2 {
        fill: #0c6db6;
      }

      .cls-3 {
        fill: #0c2545;
      }
    </style>
  </defs>
  <g>
    <rect class="cls-2" y="441.82" width="1008.54" height="166.18"/>
    <g>
      <path class="cls-1" d="M138.37,581.87h-20.73l-4.11-19.3h-23.54l-4.11,19.3h-20.8l22.99-107.49h27.44l22.85,107.49ZM109.01,541.78l-7.25-34.28-7.32,34.28h14.57Z"/>
      <path class="cls-1" d="M182.09,581.87h-27.44l-22.99-107.49h20.87l15.87,74.38,15.81-74.38h20.8l-22.92,107.49Z"/>
      <path class="cls-1" d="M271.45,581.87h-20.73l-4.11-19.3h-23.54l-4.11,19.3h-20.8l22.99-107.49h27.44l22.85,107.49ZM242.1,541.78l-7.25-34.28-7.32,34.28h14.57Z"/>
      <path class="cls-1" d="M351.51,581.87h-19.84l-29.42-57.61v57.61h-20.46v-107.56h19.84l29.49,57.89v-57.82h20.46l-.07,107.49Z"/>
      <path class="cls-1" d="M402.14,581.87h-11.02c-5.2,0-9.92-1.39-14.16-4.17-4.24-2.78-7.59-6.45-10.06-11.02-2.46-4.56-3.69-9.53-3.69-14.92v-49.13c0-5.56,1.23-10.58,3.69-15.05,2.46-4.52,5.82-8.17,10.06-10.95,4.24-2.78,8.96-4.17,14.16-4.17h11.02c5.29,0,10.03,1.39,14.23,4.17,4.2,2.78,7.55,6.43,10.06,10.95,1.28,2.19,2.19,4.33,2.74,6.43.64,2.42.96,7.16.96,14.23h-21.35v-4.58c-.09-3.15-.82-5.68-2.19-7.59-1.23-1.6-2.71-2.4-4.45-2.4h-11.02c-1.64,0-3.15.84-4.52,2.53-1.41,1.69-2.12,3.83-2.12,6.43v49.13c0,2.51.71,4.61,2.12,6.29,1.37,1.73,2.87,2.6,4.52,2.6h11.29c1.73,0,3.26-.87,4.58-2.6,1.37-1.69,2.05-3.79,2.05-6.29l-.07-9.03h-7.8v-19.77h28.94v30.31h-.07c-.09,4.56-1.35,9.08-3.76,13.55-2.46,4.52-5.82,8.14-10.06,10.88-4.24,2.78-8.94,4.17-14.1,4.17Z"/>
      <path class="cls-1" d="M510.32,581.87h-20.73l-4.11-19.3h-23.54l-4.11,19.3h-20.8l22.99-107.49h27.44l22.85,107.49ZM480.97,541.78l-7.25-34.28-7.32,34.28h14.57Z"/>
      <path class="cls-1" d="M587.23,581.87h-22.65l-19.23-38.8h-4.38v38.8h-20.32v-107.49h38.73c4.74,0,8.94,1.39,12.59,4.17,3.65,2.78,6.55,6.39,8.69,10.81,2.14,4.42,3.22,9.31,3.22,14.64v9.37c0,2.64-.3,5.43-.89,8.35-1.64,8.12-5.13,14.12-10.47,18-2.01,1.46-3.6,2.37-4.79,2.74l19.5,39.41ZM559.38,523.3c.68,0,1.55-.82,2.6-2.46,1.05-1.64,1.57-4.13,1.57-7.46v-9.37c0-3.79-1.26-6.87-3.76-9.24-.46-.46-1.16-.69-2.12-.69h-16.76l.07,29.22h18.41Z"/>
      <path class="cls-1" d="M616.04,581.94l-18.61-.07v-107.49h34.14c5.97,0,11.4,1.64,16.28,4.93,4.88,3.28,8.73,7.62,11.56,13,2.83,5.34,4.24,11.34,4.24,18v35.31c0,6.62-1.41,12.66-4.24,18.13-2.83,5.38-6.68,9.76-11.56,13.14-4.88,3.33-10.31,5-16.28,5l-15.53.07ZM631.57,561c3.1,0,5.84-1.48,8.21-4.45,2.33-2.92,3.49-6.57,3.49-10.95v-34.62c0-4.33-1.19-7.96-3.56-10.88-2.33-2.96-5.04-4.45-8.14-4.45h-13.82v65.34h13.82Z"/>
      <path class="cls-1" d="M732.77,582.63c-9.99,0-17.49-2.44-22.51-7.32-5.02-4.88-7.53-11.59-7.53-20.12v-7.32h21.62v8.48c0,5.79,2.74,8.71,8.21,8.76,2.55,0,4.56-.64,6.02-1.92,1.46-1.28,2.19-3.65,2.19-7.12,0-4.11-1.12-7.78-3.35-11.02-2.28-3.19-6.43-7-12.45-11.43-8.07-5.97-13.75-11.49-17.04-16.56-3.28-5.02-4.93-10.63-4.93-16.83,0-8.44,2.62-15.08,7.87-19.91,5.2-4.83,12.73-7.25,22.58-7.25s17.27,2.42,22.24,7.25c4.97,4.88,7.46,11.61,7.46,20.18v5.75h-21.62v-6.77c0-3.38-.68-5.68-2.05-6.91-1.37-1.28-3.33-1.92-5.88-1.92-5.25,0-7.87,2.85-7.87,8.55,0,3.56,1.16,6.89,3.49,9.99,2.33,3.1,6.52,6.91,12.59,11.43,8.07,5.93,13.71,11.45,16.9,16.56,3.19,5.11,4.79,11.02,4.79,17.72,0,8.67-2.62,15.46-7.87,20.39-5.29,4.88-12.91,7.32-22.85,7.32Z"/>
      <path class="cls-1" d="M839.03,581.87h-20.39v-43.86h-24.43l-.07,43.86h-20.39v-107.49h20.39l.07,43.86h24.43v-43.86h20.39v107.49Z"/>
      <path class="cls-1" d="M870.43,581.87h-20.39v-107.49h20.39v107.49Z"/>
      <path class="cls-1" d="M951.79,581.87h-19.84l-29.42-57.61v57.61h-20.46v-107.56h19.84l29.49,57.89v-57.82h20.46l-.07,107.49Z"/>
    </g>
  </g>
  <g>
    <g>
      <polygon class="cls-2" points="696.69 192.41 669.51 219.58 504.26 54.34 504.26 0 593.36 89.08 593.36 65.38 632.24 65.38 632.24 127.96 696.69 192.41"/>
      <polygon class="cls-2" points="586.04 303.06 558.61 330.48 504.26 384.83 504.26 330.49 531.45 303.32 504.26 276.14 504.26 221.3 531.69 248.71 558.87 275.9 586.04 303.06"/>
      <polygon class="cls-2" points="642.35 246.76 613.21 275.9 586.04 248.73 504.26 166.94 504.26 108.7 504.28 108.69 642.35 246.76"/>
    </g>
    <polygon class="cls-3" points="504.26 0 504.26 54.34 447.96 110.64 393.37 165.25 366.19 192.41 339.03 219.58 311.85 192.41 504.26 0"/>
    <polygon class="cls-3" points="504.02 166.7 476.85 193.88 504.26 221.3 504.26 276.14 449.43 221.3 420.54 192.41 475.13 137.82 504.26 108.7 504.26 166.94 504.02 166.7"/>
    <polygon class="cls-3" points="504.26 330.49 504.26 384.83 366.19 246.76 393.37 219.58 422.25 248.47 504.26 330.49"/>
  </g>
</svg>